<svg version="1.1" id="Layer_1" xmlns="http://www.w3.org/2000/svg" xmlns:xlink="http://www.w3.org/1999/xlink" x="0px" y="0px"
	 width="100%" viewBox="0 0 500 500" enable-background="new 0 0 500 500" xml:space="preserve">
<path fill="#000000" opacity="1.000000" stroke="none" 
	d="
M1.000003,246.000000 
	C1.000000,164.369293 1.000000,82.738571 1.000000,1.053929 
	C167.557327,1.053929 334.114685,1.053929 501.000000,1.053929 
	C501.000000,82.687805 501.000000,164.376053 500.645538,246.507858 
	C495.379791,242.522400 490.142761,239.529861 483.002563,239.863571 
	C472.941376,240.333817 462.750458,239.198425 453.853851,243.513992 
	C453.544250,245.936386 453.460632,248.017975 452.982178,250.004471 
	C452.236511,253.100296 451.909271,254.631317 456.356934,253.637436 
	C463.220551,252.103729 469.946167,249.669846 477.306732,250.278107 
	C480.334503,250.528305 483.013062,250.762955 483.282715,253.703842 
	C483.456451,255.598816 481.869476,258.507965 480.196716,259.528564 
	C477.373840,261.250885 473.864685,261.860168 470.629822,262.892731 
	C465.201385,264.625397 459.455017,265.698914 454.399628,268.183533 
	C447.074829,271.783508 443.864258,278.356873 445.895355,286.382812 
	C446.713531,289.615814 446.879120,293.960388 451.420654,295.362885 
	C455.936615,296.757477 460.362885,298.442596 464.903900,300.409058 
	C465.165253,303.511963 465.351166,306.206146 465.537079,308.900299 
	C465.893799,309.186829 466.250519,309.473328 466.607239,309.759857 
	C469.320496,305.785217 472.033752,301.810577 475.193909,297.897766 
	C477.270264,298.047729 478.902679,298.248077 480.528564,298.204468 
	C487.486053,298.017731 494.788696,299.962738 501.000000,295.000000 
	C501.000000,363.634583 501.000000,432.269135 501.000000,500.951843 
	C334.443359,500.951843 167.886673,500.951843 1.000000,500.951843 
	C1.000000,425.978882 1.000000,350.957306 1.317981,275.421692 
	C3.014029,277.610352 4.247646,280.398895 5.793825,283.001709 
	C15.140296,298.735504 31.510263,297.707245 46.502010,299.946747 
	C46.661964,299.970612 46.833641,299.925262 46.998772,299.903961 
	C53.668118,299.044556 60.315693,297.839905 67.012543,297.418884 
	C73.967888,296.981598 76.134506,295.227173 74.722145,288.619202 
	C72.560699,278.506470 75.567497,268.829559 76.333572,258.958099 
	C76.455925,257.381409 74.956963,254.271393 74.126556,254.243042 
	C64.355980,253.909546 54.569939,254.028870 44.004326,254.028870 
	C44.335667,257.205353 45.297371,259.916473 44.720657,262.246887 
	C43.508480,267.145142 45.077618,267.137909 49.174850,266.194946 
	C56.463600,264.517395 57.964878,266.030212 57.991680,273.625122 
	C58.003384,276.942169 57.993645,280.259308 57.993645,283.871674 
	C47.571972,285.303986 37.672134,288.006592 27.776035,281.926239 
	C22.459564,278.659698 20.840611,274.182251 19.438253,268.771271 
	C18.375708,264.671417 18.946144,261.006470 19.394724,256.951263 
	C20.019529,251.302994 22.724819,247.169724 25.828728,242.960602 
	C30.800631,236.218338 38.886841,235.744919 45.908943,233.289383 
	C48.242718,232.473282 51.228233,232.917145 53.779160,233.445114 
	C60.089630,234.751221 66.321114,236.438919 72.834167,238.034470 
	C72.834167,233.131851 72.834167,228.279022 72.834167,223.114120 
	C68.310883,222.689148 64.138565,223.058716 60.525024,221.810547 
	C50.852921,218.469711 41.001316,220.175827 31.785591,221.886337 
	C22.265585,223.653320 13.480307,228.957657 7.697060,237.742706 
	C5.757998,240.688217 3.248671,243.258316 1.000003,246.000000 
M168.544601,230.993393 
	C178.508316,230.665527 188.472214,230.342606 198.435699,230.008011 
	C204.756561,229.795746 211.084030,229.687454 217.395599,229.314041 
	C225.585526,228.829498 233.757019,228.035080 241.946640,227.543900 
	C251.291428,226.983475 260.647888,226.619598 269.998383,226.151871 
	C276.955383,225.803879 283.908234,225.356461 290.868134,225.087631 
	C295.284119,224.917068 299.709595,224.992035 304.130829,224.958191 
	C307.557343,224.931961 310.992065,225.037582 314.406586,224.822296 
	C315.886932,224.728958 317.325684,223.976288 318.783295,223.523102 
	C306.809814,220.843018 295.419464,219.078781 283.984650,217.676910 
	C271.086548,216.095657 258.152008,214.806137 245.226334,213.456924 
	C238.095139,212.712540 230.930984,212.258545 223.815918,211.392395 
	C217.300354,210.599197 210.860229,209.114990 204.333664,208.500900 
	C195.812927,207.699142 187.242584,207.395905 178.688538,206.983170 
	C164.100830,206.279297 149.497421,204.957138 134.922562,205.201904 
	C120.974358,205.436157 107.213272,208.159256 94.049263,213.145676 
	C92.679077,213.664719 91.500862,214.690582 89.847656,215.722061 
	C104.979492,225.096695 121.487381,226.801651 137.521271,229.519073 
	C147.337387,231.182709 157.537888,230.578369 168.544601,230.993393 
M303.618622,297.965820 
	C306.903687,297.965820 310.188751,297.965820 314.007751,297.965820 
	C314.007751,295.457520 313.925598,293.501099 314.022766,291.553650 
	C314.348480,285.025543 314.610107,278.490051 315.148102,271.978210 
	C315.510681,267.590027 316.755981,263.240814 316.792816,258.867340 
	C316.854584,251.534027 314.167908,244.811935 307.151459,242.017868 
	C302.348206,240.105148 296.580322,240.679230 291.267212,239.966202 
	C284.679077,239.082108 279.731537,242.115646 275.862762,245.588593 
	C274.174652,243.866409 272.700500,241.091919 270.641022,240.552536 
	C267.368134,239.695404 263.677582,240.087021 260.221527,240.470749 
	C259.077850,240.597733 257.374603,242.216568 257.200714,243.348877 
	C256.629883,247.066040 256.565216,250.870605 256.450317,254.645981 
	C256.240875,261.527405 256.461639,268.439240 255.889862,275.287201 
	C255.364594,281.578125 253.837982,287.782532 253.219650,294.071045 
	C253.096466,295.323761 254.987122,297.857086 256.119781,297.962250 
	C260.880371,298.404266 265.705750,298.149017 271.264343,298.149017 
	C272.090820,289.747437 273.558014,281.872742 273.427612,274.024597 
	C273.314728,267.230774 274.341583,261.367889 279.474365,256.816772 
	C282.442322,254.185150 286.023224,251.911636 290.186676,253.240082 
	C293.888153,254.421097 297.886353,256.479156 298.466736,260.648193 
	C299.201935,265.929535 298.887329,271.388336 298.698456,276.759125 
	C298.458313,283.588959 297.890411,290.407227 297.440369,297.605347 
	C299.788361,297.771210 301.226654,297.872803 303.618622,297.965820 
M229.591599,204.763565 
	C237.127426,206.337265 244.621735,208.158890 252.208405,209.428864 
	C264.843597,211.543945 277.528198,213.374420 290.213989,215.169464 
	C293.565247,215.643677 296.996948,215.549377 300.391693,215.716125 
	C300.490845,215.076233 300.589996,214.436325 300.689148,213.796432 
	C293.822296,211.908585 286.936859,210.085312 280.093140,208.117111 
	C270.842834,205.456772 261.510712,203.013672 252.425171,199.866837 
	C243.688705,196.840912 235.253860,192.954391 226.627502,189.597580 
	C217.187210,185.924042 207.552505,182.723694 198.231262,178.776932 
	C184.960770,173.158005 171.242935,172.731888 157.432861,175.012268 
	C148.423874,176.499878 140.125885,180.578781 132.428787,185.492081 
	C127.173058,188.846954 122.278862,192.777405 117.319023,196.575882 
	C116.643250,197.093414 116.525772,198.339935 116.486786,198.434204 
	C127.872757,196.369568 138.929855,193.149582 150.104706,192.669220 
	C162.027924,192.156677 174.183929,193.474503 186.017166,195.372284 
	C200.439468,197.685257 214.631210,201.435974 229.591599,204.763565 
M359.828064,299.616455 
	C362.362732,299.127045 364.919159,298.727753 367.426117,298.123413 
	C370.053986,297.489960 374.195343,297.365631 374.916473,295.771118 
	C376.505646,292.257050 376.359161,287.958069 376.908325,284.068939 
	C370.504089,285.086578 364.721039,285.765228 359.046661,286.959869 
	C348.915680,289.092865 339.702271,279.047943 341.713165,271.031769 
	C343.608856,270.924896 345.587860,270.724152 347.567566,270.716949 
	C357.063202,270.682312 366.559937,270.627228 376.054321,270.741058 
	C379.143158,270.778107 380.844147,270.167084 381.336121,266.549530 
	C382.340881,259.162048 380.903412,252.513016 376.045044,246.986191 
	C367.741516,237.540115 356.629669,239.802475 346.000214,240.448257 
	C340.977753,240.753387 336.960510,243.076187 333.617676,246.783508 
	C324.213531,257.213043 321.033447,269.067047 326.081055,282.393036 
	C327.555145,286.284698 329.837982,290.434448 332.948608,293.029205 
	C340.378540,299.226959 349.954681,298.976440 359.828064,299.616455 
M243.003754,270.697205 
	C247.579987,270.578094 248.677292,268.755798 248.416214,263.850311 
	C247.860977,253.418427 243.091446,245.825348 233.946609,241.782272 
	C227.989578,239.148590 221.996292,240.604523 216.050415,239.945587 
	C211.030090,239.389236 206.617462,241.027145 202.885223,243.930679 
	C196.437729,248.946548 192.175064,255.561493 190.801468,263.756866 
	C188.998047,274.516754 189.958633,284.757477 198.960220,292.182617 
	C202.476685,295.083252 207.167847,296.678314 211.506561,298.410767 
	C213.504425,299.208527 215.939209,299.027863 218.180222,299.072449 
	C221.193420,299.132416 224.216217,299.069946 227.224365,298.886963 
	C228.999039,298.778992 230.782990,297.968842 232.511688,298.108215 
	C240.031250,298.714508 245.070099,291.014221 241.825195,283.683014 
	C223.585510,289.937744 208.260223,289.106964 207.347275,270.698578 
	C218.947281,270.698578 230.527176,270.698578 243.003754,270.697205 
M138.949783,245.429123 
	C131.041336,251.317139 128.110077,259.992615 127.172905,269.068817 
	C126.150574,278.969910 130.587341,287.545349 137.891144,293.910919 
	C141.081940,296.691803 145.404831,299.518311 150.657669,298.128815 
	C151.923096,297.794098 153.488586,298.801300 154.936676,298.905640 
	C157.788330,299.111084 160.662460,299.284760 163.511871,299.148712 
	C165.618530,299.048096 167.713226,298.066864 169.791061,298.136841 
	C173.079956,298.247559 177.039062,299.134613 178.388947,295.523651 
	C179.781525,291.798462 179.625412,287.494324 180.020767,284.422974 
	C172.802505,285.348022 166.518707,286.335541 160.196518,286.864441 
	C157.991257,287.048920 155.652557,286.244446 153.441696,285.644897 
	C146.153732,283.668518 146.149109,276.958710 143.567276,270.703766 
	C146.113770,270.703766 147.877106,270.703918 149.640457,270.703735 
	C159.804031,270.702667 169.968903,270.609192 180.130508,270.750183 
	C183.714722,270.799896 185.278427,269.118225 185.675064,265.847931 
	C187.035294,254.632675 179.232590,241.788010 168.258255,240.343170 
	C158.574951,239.068314 148.125977,237.990662 138.949783,245.429123 
M404.281494,251.660858 
	C403.108185,248.130005 402.475311,244.268875 400.585205,241.176056 
	C399.153046,238.832611 385.986511,240.286774 383.761169,242.220108 
	C384.632111,244.678146 385.457428,246.975510 386.260986,249.280457 
	C391.065063,263.060455 395.808014,276.862274 400.714325,290.605743 
	C401.648010,293.221222 402.934143,297.507599 404.552338,297.752380 
	C409.861938,298.555328 415.408752,297.986359 420.840240,297.602631 
	C421.803711,297.534546 423.002502,295.980560 423.491608,294.852203 
	C425.541656,290.122864 427.278625,285.258636 429.287903,280.510498 
	C432.356262,273.259613 435.525848,266.050964 438.707275,258.848602 
	C441.218872,253.162582 443.813019,247.513077 446.901215,240.671661 
	C440.625092,240.671661 435.436401,240.564056 430.260803,240.776215 
	C429.385651,240.812088 428.193970,242.066940 427.785919,243.028961 
	C425.908203,247.456284 424.286804,251.991470 422.516602,256.465454 
	C419.707031,263.566437 416.852234,270.649506 413.439178,279.183868 
	C411.472565,273.426605 409.958893,269.198608 408.588074,264.924805 
	C407.238861,260.718384 406.034393,256.465515 404.281494,251.660858 
M85.401703,295.816437 
	C86.939285,300.204865 90.516304,297.537628 93.105873,297.853027 
	C96.195244,298.229279 100.099525,298.805511 102.284607,297.305267 
	C103.753555,296.296722 102.764030,291.828186 103.030235,288.921936 
	C103.590942,282.800507 104.264626,276.689453 104.859589,270.570984 
	C104.922028,269.928833 104.815826,269.257477 104.706482,268.613495 
	C103.989685,264.392273 107.907753,256.455841 111.868645,255.182648 
	C115.490463,254.018494 119.355156,253.609924 123.717857,252.748978 
	C123.717857,249.632507 123.717857,245.076431 123.717857,240.354614 
	C116.407883,239.205765 109.849899,239.846573 105.159668,244.761215 
	C103.850639,243.204681 102.662140,240.587875 101.469666,240.586060 
	C96.814079,240.578964 92.148918,241.345428 87.522743,242.055161 
	C87.262283,242.095108 87.210609,244.203049 87.245018,245.342957 
	C87.465126,252.633759 88.197426,259.943420 87.875702,267.207672 
	C87.463646,276.511719 86.216522,285.778809 85.401703,295.816437 
M208.195236,156.001419 
	C205.863754,156.008438 203.438126,155.604767 201.221542,156.112961 
	C197.306747,157.010498 193.354050,158.110489 189.734848,159.804382 
	C187.188858,160.995956 187.397827,162.198013 190.490906,163.430313 
	C196.688477,165.899429 202.670181,168.968323 208.574310,172.103516 
	C219.878204,178.106094 230.863968,184.743088 242.363968,190.330032 
	C251.890823,194.958359 261.907501,198.613052 271.831390,202.371109 
	C275.438080,203.736923 279.404144,204.153763 283.206207,205.003571 
	C283.356567,204.561142 283.506927,204.118698 283.657257,203.676254 
	C282.656250,202.967819 281.711884,202.156265 280.644043,201.569366 
	C276.683716,199.392746 272.322632,197.765869 268.763428,195.071899 
	C257.397766,186.469299 246.142181,177.698944 235.199539,168.567429 
	C227.465118,162.113144 219.844391,155.922501 208.195236,156.001419 
M276.028412,308.024994 
	C276.028412,315.219147 276.028412,322.413330 276.028412,329.947144 
	C277.064209,329.850586 278.429840,329.723297 280.214355,329.556976 
	C280.214355,326.152069 280.214355,323.156952 280.214355,318.728210 
	C282.081055,322.759094 283.172791,325.472137 284.584991,328.006653 
	C285.231628,329.167175 286.508728,329.976410 287.499939,330.944946 
	C288.361786,329.931152 289.449158,329.033234 290.041260,327.880859 
	C291.540497,324.962952 292.817383,321.930817 294.731567,317.745728 
	C295.394531,329.771729 295.394531,329.771729 298.437103,329.239716 
	C298.437103,322.434021 298.521210,315.672668 298.342865,308.918274 
	C298.317230,307.948975 297.025269,307.013123 296.319336,306.061798 
	C295.276001,306.901489 293.758759,307.529236 293.271790,308.617798 
	C291.226379,313.190125 289.489136,317.900330 287.163666,323.757324 
	C284.820831,318.137451 282.960327,313.483246 280.934906,308.901978 
	C280.010803,306.811768 278.950592,304.338745 276.028412,308.024994 
M98.500000,321.001404 
	C112.379005,321.001404 126.258011,321.001404 140.137024,321.001404 
	C140.122925,320.548767 140.108841,320.096100 140.094742,319.643463 
	C96.191376,319.643463 52.288006,319.643463 8.384636,319.643463 
	C8.384679,320.096100 8.384722,320.548767 8.384765,321.001404 
	C38.089844,321.001404 67.794922,321.001404 98.500000,321.001404 
M456.500000,317.999146 
	C430.028259,318.005676 403.556122,317.944427 377.085114,318.086578 
	C372.760132,318.109833 368.439941,319.030609 364.117554,319.536530 
	C364.179230,319.653900 364.240906,319.771271 364.302582,319.888641 
	C408.076599,319.888641 451.850647,319.888641 495.624664,319.888641 
	C495.624573,319.258820 495.624451,318.629028 495.624329,317.999207 
	C482.916229,317.999207 470.208099,317.999207 456.500000,317.999146 
M203.484482,307.942474 
	C205.660446,311.372925 207.836395,314.803375 209.859451,317.992767 
	C207.395218,321.914856 205.100479,325.567200 202.641296,329.481232 
	C209.985214,331.540253 209.334808,323.914429 213.033829,322.296051 
	C216.617294,324.250732 216.077774,331.238342 222.813797,329.666290 
	C221.116943,326.799744 219.936600,323.764709 217.862213,321.577637 
	C215.521423,319.109741 216.097733,317.554474 217.852859,315.250305 
	C219.863556,312.610657 221.401413,309.610779 223.372910,306.395172 
	C216.462097,305.069153 216.375702,312.005981 212.356827,314.037170 
	C211.041565,312.000214 209.891022,310.027527 208.552429,308.191956 
	C206.744705,305.713043 206.198364,305.676544 203.484482,307.942474 
M164.013092,308.780334 
	C164.013092,315.710602 164.013092,322.640869 164.013092,329.602844 
	C169.987595,329.602844 175.319916,329.602844 180.652222,329.602844 
	C180.724625,329.004150 180.797028,328.405457 180.869431,327.806793 
	C176.646820,327.363831 172.424210,326.920868 168.338730,326.492279 
	C168.338730,324.246185 168.338730,322.324066 168.338730,320.539032 
	C171.811996,320.033356 174.930923,319.579254 178.049866,319.125183 
	C177.942642,318.446533 177.835403,317.767914 177.728180,317.089294 
	C174.667313,317.089294 171.606445,317.089294 168.659241,317.089294 
	C167.347504,309.431122 167.677643,309.018433 174.525818,308.998993 
	C176.023453,308.994720 177.553131,309.155762 179.005859,308.894653 
	C179.796036,308.752655 180.455429,307.882965 181.173813,307.341492 
	C181.029770,306.933716 180.885727,306.525940 180.741684,306.118164 
	C175.655609,306.118164 170.568420,306.071259 165.485291,306.193115 
	C164.995163,306.204865 164.530167,307.263947 164.013092,308.780334 
M333.033142,330.921997 
	C336.320709,329.561218 339.314301,328.142792 339.052094,323.640564 
	C338.785187,319.057220 335.633270,317.710632 332.092834,316.555450 
	C331.471283,316.352661 330.583282,316.346863 330.274506,315.920074 
	C329.307465,314.583527 327.692139,312.947449 327.898743,311.684357 
	C328.385437,308.708984 330.596130,308.514648 333.210632,309.673828 
	C334.883392,310.415497 336.779816,310.652710 338.575989,311.116058 
	C336.207520,305.328094 331.735291,305.250427 327.653961,306.458374 
	C325.728088,307.028412 323.626770,309.916748 323.206146,312.067749 
	C322.271088,316.849579 326.405975,318.256622 329.844574,319.940979 
	C331.690491,320.845184 333.374725,322.079559 335.169006,323.187866 
	C331.536957,332.637512 327.285553,323.702484 323.575653,323.966064 
	C323.071869,328.825409 325.511047,330.715942 333.033142,330.921997 
M246.008591,327.131409 
	C246.805374,328.060181 247.602158,328.988922 248.398941,329.917694 
	C248.930191,328.888489 249.894196,327.870392 249.920944,326.828247 
	C250.070618,321.000702 250.092422,315.164246 249.907242,309.338806 
	C249.872147,308.234650 248.708893,307.166321 248.066162,306.081482 
	C247.379074,307.121033 246.135208,308.141022 246.097916,309.203369 
	C245.899307,314.861176 246.002747,320.529602 246.008591,327.131409 
z"/>
<path fill="#1FAF48" opacity="1.000000" stroke="none" 
	d="
M1.000003,246.333328 
	C3.248671,243.258316 5.757998,240.688217 7.697060,237.742706 
	C13.480307,228.957657 22.265585,223.653320 31.785591,221.886337 
	C41.001316,220.175827 50.852921,218.469711 60.525024,221.810547 
	C64.138565,223.058716 68.310883,222.689148 72.834167,223.114120 
	C72.834167,228.279022 72.834167,233.131851 72.834167,238.034470 
	C66.321114,236.438919 60.089630,234.751221 53.779160,233.445114 
	C51.228233,232.917145 48.242718,232.473282 45.908943,233.289383 
	C38.886841,235.744919 30.800631,236.218338 25.828728,242.960602 
	C22.724819,247.169724 20.019529,251.302994 19.394724,256.951263 
	C18.946144,261.006470 18.375708,264.671417 19.438253,268.771271 
	C20.840611,274.182251 22.459564,278.659698 27.776035,281.926239 
	C37.672134,288.006592 47.571972,285.303986 57.993645,283.871674 
	C57.993645,280.259308 58.003384,276.942169 57.991680,273.625122 
	C57.964878,266.030212 56.463600,264.517395 49.174850,266.194946 
	C45.077618,267.137909 43.508480,267.145142 44.720657,262.246887 
	C45.297371,259.916473 44.335667,257.205353 44.004326,254.028870 
	C54.569939,254.028870 64.355980,253.909546 74.126556,254.243042 
	C74.956963,254.271393 76.455925,257.381409 76.333572,258.958099 
	C75.567497,268.829559 72.560699,278.506470 74.722145,288.619202 
	C76.134506,295.227173 73.967888,296.981598 67.012543,297.418884 
	C60.315693,297.839905 53.668118,299.044556 46.998772,299.903961 
	C46.833641,299.925262 46.661964,299.970612 46.502010,299.946747 
	C31.510263,297.707245 15.140296,298.735504 5.793825,283.001709 
	C4.247646,280.398895 3.014029,277.610352 1.317981,274.953827 
	C1.000000,266.645752 1.000000,258.291534 1.300206,249.700378 
	C1.853443,248.979858 2.106473,248.496246 2.359502,248.012650 
	C1.906334,248.008438 1.453167,248.004211 1.000000,248.000000 
	C1.000000,247.555557 1.000000,247.111099 1.000003,246.333328 
z"/>
<path fill="#21B04A" opacity="1.000000" stroke="none" 
	d="
M464.828491,300.000336 
	C460.362885,298.442596 455.936615,296.757477 451.420654,295.362885 
	C446.879120,293.960388 446.713531,289.615814 445.895355,286.382812 
	C443.864258,278.356873 447.074829,271.783508 454.399628,268.183533 
	C459.455017,265.698914 465.201385,264.625397 470.629822,262.892731 
	C473.864685,261.860168 477.373840,261.250885 480.196716,259.528564 
	C481.869476,258.507965 483.456451,255.598816 483.282715,253.703842 
	C483.013062,250.762955 480.334503,250.528305 477.306732,250.278107 
	C469.946167,249.669846 463.220551,252.103729 456.356934,253.637436 
	C451.909271,254.631317 452.236511,253.100296 452.982178,250.004471 
	C453.460632,248.017975 453.544250,245.936386 453.853851,243.513992 
	C462.750458,239.198425 472.941376,240.333817 483.002563,239.863571 
	C490.142761,239.529861 495.379791,242.522400 500.645538,246.975708 
	C501.000000,262.687561 501.000000,278.375122 501.000000,294.531342 
	C494.788696,299.962738 487.486053,298.017731 480.528564,298.204468 
	C478.902679,298.248077 477.270264,298.047729 475.293213,297.567291 
	C477.458527,294.004852 479.971466,290.834747 483.487335,286.399475 
	C485.203094,289.197266 486.492188,291.299286 487.781250,293.401306 
	C488.191162,293.093201 488.601074,292.785065 489.010986,292.476929 
	C486.302673,284.838837 483.594360,277.200714 480.778381,269.258911 
	C473.179871,273.478180 466.223267,277.341003 459.266632,281.203827 
	C459.383575,281.493103 459.500519,281.782379 459.617462,282.071655 
	C462.008820,282.071655 464.400146,282.071655 466.988129,282.071655 
	C466.988129,284.777069 467.253418,287.272430 466.924866,289.686981 
	C466.452911,293.155609 465.548370,296.565430 464.828491,300.000336 
z"/>
<path fill="#000000" opacity="1.000000" stroke="none" 
	d="
M1.000000,248.250000 
	C1.453167,248.004211 1.906334,248.008438 2.359502,248.012650 
	C2.106473,248.496246 1.853443,248.979858 1.300206,249.231720 
	C1.000000,249.000000 1.000000,248.500000 1.000000,248.250000 
z"/>
<path fill="#052D5C" opacity="1.000000" stroke="none" 
	d="
M168.055176,230.992981 
	C157.537888,230.578369 147.337387,231.182709 137.521271,229.519073 
	C121.487381,226.801651 104.979492,225.096695 89.847656,215.722061 
	C91.500862,214.690582 92.679077,213.664719 94.049263,213.145676 
	C107.213272,208.159256 120.974358,205.436157 134.922562,205.201904 
	C149.497421,204.957138 164.100830,206.279297 178.688538,206.983170 
	C187.242584,207.395905 195.812927,207.699142 204.333664,208.500900 
	C210.860229,209.114990 217.300354,210.599197 223.815918,211.392395 
	C230.930984,212.258545 238.095139,212.712540 245.226334,213.456924 
	C258.152008,214.806137 271.086548,216.095657 283.984650,217.676910 
	C295.419464,219.078781 306.809814,220.843018 318.783295,223.523102 
	C317.325684,223.976288 315.886932,224.728958 314.406586,224.822296 
	C310.992065,225.037582 307.557343,224.931961 304.130829,224.958191 
	C299.709595,224.992035 295.284119,224.917068 290.868134,225.087631 
	C283.908234,225.356461 276.955383,225.803879 269.998383,226.151871 
	C260.647888,226.619598 251.291428,226.983475 241.946640,227.543900 
	C233.757019,228.035080 225.585526,228.829498 217.395599,229.314041 
	C211.084030,229.687454 204.756561,229.795746 198.435699,230.008011 
	C188.472214,230.342606 178.508316,230.665527 168.055176,230.992981 
z"/>
<path fill="#1FAF48" opacity="1.000000" stroke="none" 
	d="
M303.141785,297.970093 
	C301.226654,297.872803 299.788361,297.771210 297.440369,297.605347 
	C297.890411,290.407227 298.458313,283.588959 298.698456,276.759125 
	C298.887329,271.388336 299.201935,265.929535 298.466736,260.648193 
	C297.886353,256.479156 293.888153,254.421097 290.186676,253.240082 
	C286.023224,251.911636 282.442322,254.185150 279.474365,256.816772 
	C274.341583,261.367889 273.314728,267.230774 273.427612,274.024597 
	C273.558014,281.872742 272.090820,289.747437 271.264343,298.149017 
	C265.705750,298.149017 260.880371,298.404266 256.119781,297.962250 
	C254.987122,297.857086 253.096466,295.323761 253.219650,294.071045 
	C253.837982,287.782532 255.364594,281.578125 255.889862,275.287201 
	C256.461639,268.439240 256.240875,261.527405 256.450317,254.645981 
	C256.565216,250.870605 256.629883,247.066040 257.200714,243.348877 
	C257.374603,242.216568 259.077850,240.597733 260.221527,240.470749 
	C263.677582,240.087021 267.368134,239.695404 270.641022,240.552536 
	C272.700500,241.091919 274.174652,243.866409 275.862762,245.588593 
	C279.731537,242.115646 284.679077,239.082108 291.267212,239.966202 
	C296.580322,240.679230 302.348206,240.105148 307.151459,242.017868 
	C314.167908,244.811935 316.854584,251.534027 316.792816,258.867340 
	C316.755981,263.240814 315.510681,267.590027 315.148102,271.978210 
	C314.610107,278.490051 314.348480,285.025543 314.022766,291.553650 
	C313.925598,293.501099 314.007751,295.457520 314.007751,297.965820 
	C310.188751,297.965820 306.903687,297.965820 303.141785,297.970093 
z"/>
<path fill="#042C5C" opacity="1.000000" stroke="none" 
	d="
M229.257141,204.664185 
	C214.631210,201.435974 200.439468,197.685257 186.017166,195.372284 
	C174.183929,193.474503 162.027924,192.156677 150.104706,192.669220 
	C138.929855,193.149582 127.872757,196.369568 116.486786,198.434204 
	C116.525772,198.339935 116.643250,197.093414 117.319023,196.575882 
	C122.278862,192.777405 127.173058,188.846954 132.428787,185.492081 
	C140.125885,180.578781 148.423874,176.499878 157.432861,175.012268 
	C171.242935,172.731888 184.960770,173.158005 198.231262,178.776932 
	C207.552505,182.723694 217.187210,185.924042 226.627502,189.597580 
	C235.253860,192.954391 243.688705,196.840912 252.425171,199.866837 
	C261.510712,203.013672 270.842834,205.456772 280.093140,208.117111 
	C286.936859,210.085312 293.822296,211.908585 300.689148,213.796432 
	C300.589996,214.436325 300.490845,215.076233 300.391693,215.716125 
	C296.996948,215.549377 293.565247,215.643677 290.213989,215.169464 
	C277.528198,213.374420 264.843597,211.543945 252.208405,209.428864 
	C244.621735,208.158890 237.127426,206.337265 229.257141,204.664185 
z"/>
<path fill="#1FAF48" opacity="1.000000" stroke="none" 
	d="
M359.428101,299.762695 
	C349.954681,298.976440 340.378540,299.226959 332.948608,293.029205 
	C329.837982,290.434448 327.555145,286.284698 326.081055,282.393036 
	C321.033447,269.067047 324.213531,257.213043 333.617676,246.783508 
	C336.960510,243.076187 340.977753,240.753387 346.000214,240.448257 
	C356.629669,239.802475 367.741516,237.540115 376.045044,246.986191 
	C380.903412,252.513016 382.340881,259.162048 381.336121,266.549530 
	C380.844147,270.167084 379.143158,270.778107 376.054321,270.741058 
	C366.559937,270.627228 357.063202,270.682312 347.567566,270.716949 
	C345.587860,270.724152 343.608856,270.924896 341.713165,271.031769 
	C339.702271,279.047943 348.915680,289.092865 359.046661,286.959869 
	C364.721039,285.765228 370.504089,285.086578 376.908325,284.068939 
	C376.359161,287.958069 376.505646,292.257050 374.916473,295.771118 
	C374.195343,297.365631 370.053986,297.489960 367.426117,298.123413 
	C364.919159,298.727753 362.362732,299.127045 359.428101,299.762695 
M364.966370,258.888550 
	C363.097137,252.734283 359.633636,249.789566 354.546783,250.029617 
	C348.828796,250.299469 345.070557,254.192001 343.131683,261.991455 
	C344.496857,261.991455 345.816193,261.991608 347.135529,261.991425 
	C351.940399,261.990845 356.752716,262.134613 361.544769,261.886414 
	C362.719696,261.825562 363.828278,260.483398 364.966370,258.888550 
z"/>
<path fill="#1FAF48" opacity="1.000000" stroke="none" 
	d="
M242.555420,270.697876 
	C230.527176,270.698578 218.947281,270.698578 207.347275,270.698578 
	C208.260223,289.106964 223.585510,289.937744 241.825195,283.683014 
	C245.070099,291.014221 240.031250,298.714508 232.511688,298.108215 
	C230.782990,297.968842 228.999039,298.778992 227.224365,298.886963 
	C224.216217,299.069946 221.193420,299.132416 218.180222,299.072449 
	C215.939209,299.027863 213.504425,299.208527 211.506561,298.410767 
	C207.167847,296.678314 202.476685,295.083252 198.960220,292.182617 
	C189.958633,284.757477 188.998047,274.516754 190.801468,263.756866 
	C192.175064,255.561493 196.437729,248.946548 202.885223,243.930679 
	C206.617462,241.027145 211.030090,239.389236 216.050415,239.945587 
	C221.996292,240.604523 227.989578,239.148590 233.946609,241.782272 
	C243.091446,245.825348 247.860977,253.418427 248.416214,263.850311 
	C248.677292,268.755798 247.579987,270.578094 242.555420,270.697876 
M208.678802,261.197998 
	C214.682541,261.463379 220.684937,261.845032 226.690948,261.914856 
	C228.252838,261.933014 229.826065,260.977692 231.394073,260.469482 
	C230.702972,258.556458 230.568283,255.852432 229.205719,254.893982 
	C226.308746,252.856171 222.531708,250.129471 219.553558,250.580200 
	C214.484055,251.347397 209.288452,253.871506 208.678802,261.197998 
z"/>
<path fill="#1FAE47" opacity="1.000000" stroke="none" 
	d="
M139.141998,245.120972 
	C148.125977,237.990662 158.574951,239.068314 168.258255,240.343170 
	C179.232590,241.788010 187.035294,254.632675 185.675064,265.847931 
	C185.278427,269.118225 183.714722,270.799896 180.130508,270.750183 
	C169.968903,270.609192 159.804031,270.702667 149.640457,270.703735 
	C147.877106,270.703918 146.113770,270.703766 143.567276,270.703766 
	C146.149109,276.958710 146.153732,283.668518 153.441696,285.644897 
	C155.652557,286.244446 157.991257,287.048920 160.196518,286.864441 
	C166.518707,286.335541 172.802505,285.348022 180.020767,284.422974 
	C179.625412,287.494324 179.781525,291.798462 178.388947,295.523651 
	C177.039062,299.134613 173.079956,298.247559 169.791061,298.136841 
	C167.713226,298.066864 165.618530,299.048096 163.511871,299.148712 
	C160.662460,299.284760 157.788330,299.111084 154.936676,298.905640 
	C153.488586,298.801300 151.923096,297.794098 150.657669,298.128815 
	C145.404831,299.518311 141.081940,296.691803 137.891144,293.910919 
	C130.587341,287.545349 126.150574,278.969910 127.172905,269.068817 
	C128.110077,259.992615 131.041336,251.317139 139.141998,245.120972 
M168.915817,259.075531 
	C166.441483,252.597473 161.609940,249.078918 156.523636,250.051010 
	C150.130814,251.272797 146.610031,255.475906 146.780869,261.984283 
	C153.029922,261.984283 159.293076,262.090668 165.546188,261.887604 
	C166.690292,261.850433 167.793488,260.553955 168.915817,259.075531 
z"/>
<path fill="#1FAF47" opacity="1.000000" stroke="none" 
	d="
M404.523926,251.946945 
	C406.034393,256.465515 407.238861,260.718384 408.588074,264.924805 
	C409.958893,269.198608 411.472565,273.426605 413.439178,279.183868 
	C416.852234,270.649506 419.707031,263.566437 422.516602,256.465454 
	C424.286804,251.991470 425.908203,247.456284 427.785919,243.028961 
	C428.193970,242.066940 429.385651,240.812088 430.260803,240.776215 
	C435.436401,240.564056 440.625092,240.671661 446.901215,240.671661 
	C443.813019,247.513077 441.218872,253.162582 438.707275,258.848602 
	C435.525848,266.050964 432.356262,273.259613 429.287903,280.510498 
	C427.278625,285.258636 425.541656,290.122864 423.491608,294.852203 
	C423.002502,295.980560 421.803711,297.534546 420.840240,297.602631 
	C415.408752,297.986359 409.861938,298.555328 404.552338,297.752380 
	C402.934143,297.507599 401.648010,293.221222 400.714325,290.605743 
	C395.808014,276.862274 391.065063,263.060455 386.260986,249.280457 
	C385.457428,246.975510 384.632111,244.678146 383.761169,242.220108 
	C385.986511,240.286774 399.153046,238.832611 400.585205,241.176056 
	C402.475311,244.268875 403.108185,248.130005 404.523926,251.946945 
z"/>
<path fill="#1FAF47" opacity="1.000000" stroke="none" 
	d="
M85.365463,295.439148 
	C86.216522,285.778809 87.463646,276.511719 87.875702,267.207672 
	C88.197426,259.943420 87.465126,252.633759 87.245018,245.342957 
	C87.210609,244.203049 87.262283,242.095108 87.522743,242.055161 
	C92.148918,241.345428 96.814079,240.578964 101.469666,240.586060 
	C102.662140,240.587875 103.850639,243.204681 105.159668,244.761215 
	C109.849899,239.846573 116.407883,239.205765 123.717857,240.354614 
	C123.717857,245.076431 123.717857,249.632507 123.717857,252.748978 
	C119.355156,253.609924 115.490463,254.018494 111.868645,255.182648 
	C107.907753,256.455841 103.989685,264.392273 104.706482,268.613495 
	C104.815826,269.257477 104.922028,269.928833 104.859589,270.570984 
	C104.264626,276.689453 103.590942,282.800507 103.030235,288.921936 
	C102.764030,291.828186 103.753555,296.296722 102.284607,297.305267 
	C100.099525,298.805511 96.195244,298.229279 93.105873,297.853027 
	C90.516304,297.537628 86.939285,300.204865 85.365463,295.439148 
z"/>
<path fill="#042C5C" opacity="1.000000" stroke="none" 
	d="
M208.635162,156.001556 
	C219.844391,155.922501 227.465118,162.113144 235.199539,168.567429 
	C246.142181,177.698944 257.397766,186.469299 268.763428,195.071899 
	C272.322632,197.765869 276.683716,199.392746 280.644043,201.569366 
	C281.711884,202.156265 282.656250,202.967819 283.657257,203.676254 
	C283.506927,204.118698 283.356567,204.561142 283.206207,205.003571 
	C279.404144,204.153763 275.438080,203.736923 271.831390,202.371109 
	C261.907501,198.613052 251.890823,194.958359 242.363968,190.330032 
	C230.863968,184.743088 219.878204,178.106094 208.574310,172.103516 
	C202.670181,168.968323 196.688477,165.899429 190.490906,163.430313 
	C187.397827,162.198013 187.188858,160.995956 189.734848,159.804382 
	C193.354050,158.110489 197.306747,157.010498 201.221542,156.112961 
	C203.438126,155.604767 205.863754,156.008438 208.635162,156.001556 
z"/>
<path fill="#F9FCFA" opacity="1.000000" stroke="none" 
	d="
M464.903931,300.409058 
	C465.548370,296.565430 466.452911,293.155609 466.924866,289.686981 
	C467.253418,287.272430 466.988129,284.777069 466.988129,282.071655 
	C464.400146,282.071655 462.008820,282.071655 459.617462,282.071655 
	C459.500519,281.782379 459.383575,281.493103 459.266632,281.203827 
	C466.223267,277.341003 473.179871,273.478180 480.778381,269.258911 
	C483.594360,277.200714 486.302673,284.838837 489.010986,292.476929 
	C488.601074,292.785065 488.191162,293.093201 487.781250,293.401306 
	C486.492188,291.299286 485.203094,289.197266 483.487335,286.399475 
	C479.971466,290.834747 477.458527,294.004852 474.846313,297.505432 
	C472.033752,301.810577 469.320496,305.785217 466.607239,309.759857 
	C466.250519,309.473328 465.893799,309.186829 465.537079,308.900299 
	C465.351166,306.206146 465.165253,303.511963 464.903931,300.409058 
z"/>
<path fill="#21B14B" opacity="1.000000" stroke="none" 
	d="
M276.072327,307.585083 
	C278.950592,304.338745 280.010803,306.811768 280.934906,308.901978 
	C282.960327,313.483246 284.820831,318.137451 287.163666,323.757324 
	C289.489136,317.900330 291.226379,313.190125 293.271790,308.617798 
	C293.758759,307.529236 295.276001,306.901489 296.319336,306.061798 
	C297.025269,307.013123 298.317230,307.948975 298.342865,308.918274 
	C298.521210,315.672668 298.437103,322.434021 298.437103,329.239716 
	C295.394531,329.771729 295.394531,329.771729 294.731567,317.745728 
	C292.817383,321.930817 291.540497,324.962952 290.041260,327.880859 
	C289.449158,329.033234 288.361786,329.931152 287.499939,330.944946 
	C286.508728,329.976410 285.231628,329.167175 284.584991,328.006653 
	C283.172791,325.472137 282.081055,322.759094 280.214355,318.728210 
	C280.214355,323.156952 280.214355,326.152069 280.214355,329.556976 
	C278.429840,329.723297 277.064209,329.850586 276.028412,329.947144 
	C276.028412,322.413330 276.028412,315.219147 276.072327,307.585083 
z"/>
<path fill="#20B14A" opacity="1.000000" stroke="none" 
	d="
M98.000000,321.001404 
	C67.794922,321.001404 38.089844,321.001404 8.384765,321.001404 
	C8.384722,320.548767 8.384679,320.096100 8.384636,319.643463 
	C52.288006,319.643463 96.191376,319.643463 140.094742,319.643463 
	C140.108841,320.096100 140.122925,320.548767 140.137024,321.001404 
	C126.258011,321.001404 112.379005,321.001404 98.000000,321.001404 
z"/>
<path fill="#20B14C" opacity="1.000000" stroke="none" 
	d="
M457.000000,317.999176 
	C470.208099,317.999207 482.916229,317.999207 495.624329,317.999207 
	C495.624451,318.629028 495.624573,319.258820 495.624664,319.888641 
	C451.850647,319.888641 408.076599,319.888641 364.302582,319.888641 
	C364.240906,319.771271 364.179230,319.653900 364.117554,319.536530 
	C368.439941,319.030609 372.760132,318.109833 377.085114,318.086578 
	C403.556122,317.944427 430.028259,318.005676 457.000000,317.999176 
z"/>
<path fill="#21B14B" opacity="1.000000" stroke="none" 
	d="
M203.329590,307.604034 
	C206.198364,305.676544 206.744705,305.713043 208.552429,308.191956 
	C209.891022,310.027527 211.041565,312.000214 212.356827,314.037170 
	C216.375702,312.005981 216.462097,305.069153 223.372910,306.395172 
	C221.401413,309.610779 219.863556,312.610657 217.852859,315.250305 
	C216.097733,317.554474 215.521423,319.109741 217.862213,321.577637 
	C219.936600,323.764709 221.116943,326.799744 222.813797,329.666290 
	C216.077774,331.238342 216.617294,324.250732 213.033829,322.296051 
	C209.334808,323.914429 209.985214,331.540253 202.641296,329.481232 
	C205.100479,325.567200 207.395218,321.914856 209.859451,317.992767 
	C207.836395,314.803375 205.660446,311.372925 203.329590,307.604034 
z"/>
<path fill="#21B14B" opacity="1.000000" stroke="none" 
	d="
M164.033295,308.308594 
	C164.530167,307.263947 164.995163,306.204865 165.485291,306.193115 
	C170.568420,306.071259 175.655609,306.118164 180.741684,306.118164 
	C180.885727,306.525940 181.029770,306.933716 181.173813,307.341492 
	C180.455429,307.882965 179.796036,308.752655 179.005859,308.894653 
	C177.553131,309.155762 176.023453,308.994720 174.525818,308.998993 
	C167.677643,309.018433 167.347504,309.431122 168.659241,317.089294 
	C171.606445,317.089294 174.667313,317.089294 177.728180,317.089294 
	C177.835403,317.767914 177.942642,318.446533 178.049866,319.125183 
	C174.930923,319.579254 171.811996,320.033356 168.338730,320.539032 
	C168.338730,322.324066 168.338730,324.246185 168.338730,326.492279 
	C172.424210,326.920868 176.646820,327.363831 180.869431,327.806793 
	C180.797028,328.405457 180.724625,329.004150 180.652222,329.602844 
	C175.319916,329.602844 169.987595,329.602844 164.013092,329.602844 
	C164.013092,322.640869 164.013092,315.710602 164.033295,308.308594 
z"/>
<path fill="#21B14B" opacity="1.000000" stroke="none" 
	d="
M332.624512,330.951355 
	C325.511047,330.715942 323.071869,328.825409 323.575653,323.966064 
	C327.285553,323.702484 331.536957,332.637512 335.169006,323.187866 
	C333.374725,322.079559 331.690491,320.845184 329.844574,319.940979 
	C326.405975,318.256622 322.271088,316.849579 323.206146,312.067749 
	C323.626770,309.916748 325.728088,307.028412 327.653961,306.458374 
	C331.735291,305.250427 336.207520,305.328094 338.575989,311.116058 
	C336.779816,310.652710 334.883392,310.415497 333.210632,309.673828 
	C330.596130,308.514648 328.385437,308.708984 327.898743,311.684357 
	C327.692139,312.947449 329.307465,314.583527 330.274506,315.920074 
	C330.583282,316.346863 331.471283,316.352661 332.092834,316.555450 
	C335.633270,317.710632 338.785187,319.057220 339.052094,323.640564 
	C339.314301,328.142792 336.320709,329.561218 332.624512,330.951355 
z"/>
<path fill="#21B14B" opacity="1.000000" stroke="none" 
	d="
M246.005127,326.662872 
	C246.002747,320.529602 245.899307,314.861176 246.097916,309.203369 
	C246.135208,308.141022 247.379074,307.121033 248.066162,306.081482 
	C248.708893,307.166321 249.872147,308.234650 249.907242,309.338806 
	C250.092422,315.164246 250.070618,321.000702 249.920944,326.828247 
	C249.894196,327.870392 248.930191,328.888489 248.398941,329.917694 
	C247.602158,328.988922 246.805374,328.060181 246.005127,326.662872 
z"/>
<path fill="#000000" opacity="1.000000" stroke="none" 
	d="
M364.966858,259.309448 
	C363.828278,260.483398 362.719696,261.825562 361.544769,261.886414 
	C356.752716,262.134613 351.940399,261.990845 347.135529,261.991425 
	C345.816193,261.991608 344.496857,261.991455 343.131683,261.991455 
	C345.070557,254.192001 348.828796,250.299469 354.546783,250.029617 
	C359.633636,249.789566 363.097137,252.734283 364.966858,259.309448 
z"/>
<path fill="#000000" opacity="1.000000" stroke="none" 
	d="
M208.799805,260.873718 
	C209.288452,253.871506 214.484055,251.347397 219.553558,250.580200 
	C222.531708,250.129471 226.308746,252.856171 229.205719,254.893982 
	C230.568283,255.852432 230.702972,258.556458 231.394073,260.469482 
	C229.826065,260.977692 228.252838,261.933014 226.690948,261.914856 
	C220.684937,261.845032 214.682541,261.463379 208.799805,260.873718 
z"/>
<path fill="#000100" opacity="1.000000" stroke="none" 
	d="
M168.915680,259.457153 
	C167.793488,260.553955 166.690292,261.850433 165.546188,261.887604 
	C159.293076,262.090668 153.029922,261.984283 146.780869,261.984283 
	C146.610031,255.475906 150.130814,251.272797 156.523636,250.051010 
	C161.609940,249.078918 166.441483,252.597473 168.915680,259.457153 
z"/>
</svg>